<?xml version="1.0" standalone="no"?>
<!DOCTYPE svg PUBLIC "-//W3C//DTD SVG 20010904//EN"
 "http://www.w3.org/TR/2001/REC-SVG-20010904/DTD/svg10.dtd">
<svg version="1.0" xmlns="http://www.w3.org/2000/svg"
 width="500.000000pt" height="250.000000pt" viewBox="0 0 500.000000 250.000000"
 preserveAspectRatio="xMidYMid meet">

<g transform="translate(0.000000,250.000000) scale(0.100000,-0.100000)"
fill="#000000" stroke="none">
<path d="M627 1940 c-119 -21 -263 -124 -320 -228 -95 -175 -68 -383 70 -532
72 -78 173 -130 267 -137 l66 -6 0 227 0 226 225 0 225 0 0 28 c0 40 -27 136
-51 184 -25 50 -110 142 -159 173 -88 55 -223 83 -323 65z"/>
<path d="M1694 1481 c-70 -30 -95 -126 -51 -192 69 -103 227 -49 227 78 0 62
-47 113 -110 119 -25 2 -54 0 -66 -5z"/>
<path d="M815 1291 c-21 -44 -36 -83 -34 -88 8 -15 29 -11 39 8 14 25 85 27
98 2 9 -14 52 -27 52 -15 0 2 -18 42 -39 88 -52 111 -66 112 -116 5z m68 -1
c4 -15 0 -20 -14 -20 -21 0 -22 1 -13 24 8 22 21 20 27 -4z"/>
<path d="M989 1368 c0 -2 -1 -39 -2 -83 -2 -81 15 -123 21 -52 l3 38 47 -3
c45 -3 47 -5 52 -36 3 -18 10 -33 15 -33 15 0 18 37 5 62 -9 15 -9 24 -1 32
16 16 13 42 -7 60 -13 12 -37 17 -75 17 -31 0 -57 -1 -58 -2z m116 -48 c0 -23
-4 -25 -47 -28 -48 -3 -48 -3 -48 28 0 31 0 31 48 28 43 -3 47 -5 47 -28z"/>
<path d="M1170 1302 c0 -64 2 -72 26 -91 33 -26 75 -27 105 -3 19 16 22 29 23
87 1 46 -3 69 -11 72 -10 4 -13 -13 -13 -60 0 -52 -4 -67 -20 -82 -16 -15 -26
-17 -48 -9 -25 9 -27 14 -32 78 -3 43 -10 71 -17 74 -10 3 -13 -15 -13 -66z"/>
<path d="M1360 1286 c0 -107 18 -124 22 -21 l3 75 55 -73 c74 -97 84 -95 88
16 2 72 0 87 -12 87 -12 0 -16 -16 -18 -71 l-3 -70 -50 70 c-29 41 -57 71 -67
71 -16 0 -18 -11 -18 -84z"/>
<path d="M2650 1361 c0 -5 15 -42 34 -83 48 -105 67 -109 108 -20 51 114 51
112 25 112 -19 0 -28 -11 -49 -62 -25 -60 -27 -62 -36 -38 -34 87 -42 100 -61
100 -12 0 -21 -4 -21 -9z"/>
<path d="M2876 1290 c-38 -83 -44 -127 -12 -77 15 22 26 27 61 27 35 0 46 -5
61 -27 31 -48 26 -8 -10 73 -19 44 -41 80 -49 82 -9 2 -27 -26 -51 -78z m68
13 l17 -33 -36 0 -35 0 17 35 c9 19 17 34 19 32 1 -1 9 -17 18 -34z"/>
<path d="M3047 1352 c-35 -39 -16 -68 54 -80 34 -6 45 -12 47 -29 2 -14 -3
-23 -17 -28 -26 -8 -68 3 -75 21 -3 8 -10 14 -16 14 -18 0 -11 -28 12 -44 48
-34 128 -9 128 39 0 28 -8 34 -69 50 -35 8 -46 16 -46 31 0 26 50 32 76 8 22
-20 38 -11 23 14 -16 26 -95 28 -117 4z"/>
<path d="M3210 1296 c0 -66 3 -77 22 -90 31 -22 84 -20 108 4 16 16 20 33 20
90 0 40 -4 70 -10 70 -6 0 -10 -27 -10 -60 0 -47 -4 -64 -20 -80 -46 -46 -90
-8 -90 80 0 33 -4 60 -10 60 -6 0 -10 -31 -10 -74z"/>
<path d="M3400 1282 l0 -87 71 5 c83 6 99 20 99 86 0 60 -32 84 -111 84 l-59
0 0 -88z m137 42 c17 -24 16 -55 -3 -82 -12 -18 -25 -22 -65 -22 l-49 0 0 58
c0 32 3 62 8 66 13 14 95 -1 109 -20z"/>
<path d="M3600 1287 c0 -46 2 -86 4 -88 8 -8 136 3 136 12 0 5 -27 9 -60 9
-57 0 -60 1 -60 25 0 24 3 25 55 25 43 0 55 3 55 16 0 12 -10 15 -52 13 -50
-3 -53 -2 -53 21 0 23 4 25 58 28 81 4 71 22 -13 22 l-70 0 0 -83z"/>
<path d="M3750 1367 c0 -12 63 -153 73 -164 7 -7 17 -9 22 -5 16 10 79 161 71
169 -10 10 -20 -6 -51 -80 l-28 -68 -31 72 c-17 40 -37 74 -44 77 -6 2 -12 2
-12 -1z"/>
<path d="M3965 1285 c-37 -85 -42 -121 -10 -71 15 22 25 26 66 26 35 0 49 -4
49 -14 0 -7 7 -19 15 -26 12 -10 15 -10 15 3 0 27 -69 167 -83 167 -8 0 -31
-38 -52 -85z m70 15 l16 -30 -31 0 c-34 0 -34 -1 -20 34 12 33 16 33 35 -4z"/>
<path d="M4122 1285 c4 -102 21 -113 28 -18 l5 67 53 -71 c69 -94 82 -90 82
23 0 103 -18 112 -22 12 l-3 -73 -55 73 c-32 43 -62 72 -73 72 -16 0 -17 -8
-15 -85z"/>
<path d="M4410 1180 l0 -140 -1579 0 c-1142 0 -1582 -3 -1587 -11 -15 -25 -15
-137 0 -203 21 -91 59 -158 118 -211 90 -81 -39 -75 1627 -75 993 0 1498 4
1523 10 21 6 57 25 80 43 158 121 203 361 104 554 -49 97 -156 172 -243 173
l-43 0 0 -140z"/>
<path d="M2040 1283 c-62 -23 -81 -103 -35 -148 l24 -25 246 0 247 0 29 29
c31 31 35 53 19 95 -19 50 -49 56 -292 55 -123 0 -230 -3 -238 -6z"/>
</g>
</svg>
